# xmcd
# Track frame offsets:
# 150
# 23025
# 43875
# 58612
# 80887
# 104850
# 120562
# 135150
# 156675
# 174862
# 200175
#
# Disc length: 2907 seconds
# Revision: 2
# Processed by: cddbd v1.4PL0 Copyright (c) Steve Scherf et al.
# Submitted via: VisiTrax 2.9.5.180 - For more info visit www.synapsa.com
#
DISCID=9f0b590b
DTITLE=Rod Piazza and The Mighty Flyers - Here and Now
DYEAR=1999
DGENRE=Blues
TTITLE0=Brought Together By The Blues
TTITLE1=First Love
TTITLE2=Somebody's Fool
TTITLE3=Love Doctor
TTITLE4=Goodbye My Lover
TTITLE5=Spit Shine
TTITLE6=Every Shut Eye Ain't Sleep
TTITLE7=Strat-o-spheric
TTITLE8=Don't Make Your Daddy Dizzy
TTITLE9=I Do Believe
TTITLE10=Greasy Foot
EXTD=YEAR: 1999 ID3G:   0
EXTT0=
EXTT1=
EXTT2=
EXTT3=
EXTT4=
EXTT5=
EXTT6=
EXTT7=
EXTT8=
EXTT9=
EXTT10=
PLAYORDER=
